Coordinates
version=1
nRows=21
nColumns=28
inDegrees=yes

Units are S.I. units (second, meters, Newtons, ...)
Angles are in degrees.

endheader
time	pelvis_tilt	pelvis_list	pelvis_rotation	pelvis_tx	pelvis_ty	pelvis_tz	hip_flexion_r	hip_adduction_r	hip_rotation_r	knee_angle_r	ankle_angle_r	subtalar_angle_r	mtp_angle_r	hip_flexion_l	hip_adduction_l	hip_rotation_l	knee_angle_l	socket_flexion	socket_adduction	socket_rotation	socket_tx	socket_ty	socket_tz	foot_flex	lumbar_extension	lumbar_bending	lumbar_rotation
      0.31250000	      2.36471450	     -0.86036781	     -6.44914449	     -0.42437951	      1.03139838	      0.25616400	     12.89867272	      0.88417310	     -1.67077673	    -65.64528967	      8.32259771	    -14.90319303	     -2.40082898	     -5.18140424	      0.17418154	     -4.40737321	      0.71361247	      1.35203874	      0.00000000	      0.00000000	      0.00000000	      0.00000000	      0.00000000	      0.09350712	    -11.02247615	     -2.20944206	      4.93078693
      0.31666667	      2.41029726	     -0.88573721	     -6.37470722	     -0.41929639	      1.03180110	      0.25614900	     13.44705526	      0.91908973	     -1.71245648	    -65.35850217	      8.38991397	    -14.88069949	     -2.39471579	     -5.54139142	      0.17724217	     -4.39193750	      0.67153662	      1.26997659	      0.00000000	      0.00000000	      0.00000000	      0.00000000	      0.00000000	      0.12494530	    -11.11245825	     -2.20473829	      4.91990817
      0.32083333	      2.32869442	     -1.30975028	     -6.11242693	     -0.41379757	      1.03222131	      0.25574547	     13.92994376	      1.33857176	     -2.04914428	    -64.84336284	      9.29475140	    -14.29071336	     -2.28611812	     -5.89537933	     -0.27799883	     -4.16752495	      0.86496246	      1.36335119	      0.00000000	      0.00000000	      0.00000000	      0.00000000	      0.00000000	      0.38384608	    -11.04817815	     -1.60970499	      4.77298009
      0.32500000	      2.36992050	     -1.32327100	     -6.05002175	     -0.40884821	      1.03255885	      0.25579279	     14.48189458	      1.36008718	     -2.10316227	    -64.49979815	      9.36041185	    -14.23939768	     -2.28367779	     -6.24625504	     -0.26816142	     -4.14034620	      0.84007582	      1.29276088	      0.00000000	      0.00000000	      0.00000000	      0.00000000	      0.00000000	      0.40356767	    -11.15560361	     -1.60667866	      4.74902756
      0.32916667	      2.32612761	     -1.72936936	     -5.63871858	     -0.40320208	      1.03300420	      0.25505881	     14.85198516	      1.65592464	     -2.62857474	    -63.83130584	     10.28413408	    -13.06415688	     -2.28623975	     -6.71287915	     -0.70591258	     -3.71175073	      1.29904742	      1.54137037	      0.00000000	      0.00000000	      0.00000000	      0.00000000	      0.00000000	      0.53405430	    -11.10840059	     -0.99190407	      4.29268467
      0.33333333	      2.52207760	     -1.87286778	     -5.33152573	     -0.39788024	      1.03350952	      0.25454964	     15.09323931	      1.63467615	     -3.05142483	    -63.32258906	     11.01525959	    -12.18200629	     -2.85495576	     -7.37783428	     -0.82594811	     -3.44335485	      1.68547762	      1.74710523	      0.00000000	      0.00000000	      0.00000000	      0.00000000	      0.00000000	      0.63971768	    -11.36045992	     -0.74879181	      3.75344194
      0.33750000	      2.56680812	     -1.87976068	     -5.27622382	     -0.39308831	      1.03374669	      0.25461999	     15.63681810	      1.63784508	     -3.10038267	    -62.91446647	     11.08417374	    -12.17785350	     -2.85407982	     -7.66454540	     -0.81478246	     -3.44529390	      1.49482291	      1.57115548	      0.00000000	      0.00000000	      0.00000000	      0.00000000	      0.00000000	      0.69037633	    -11.48716227	     -0.75354697	      3.74988856
      0.34166667	      2.45487480	     -2.27562759	     -4.98787590	     -0.38753575	      1.03405760	      0.25427000	     16.04889610	      2.03063327	     -3.42725009	    -62.09833335	     11.79175608	    -11.80498824	     -2.90061904	     -7.97615833	     -1.26322482	     -3.23321426	      1.69596287	      1.65702012	      0.00000000	      0.00000000	      0.00000000	      0.00000000	      0.00000000	      0.88667143	    -11.34082354	     -0.21712686	      3.67226320
      0.34583333	      2.49284061	     -2.48582445	     -4.73234325	     -0.38221721	      1.03436461	      0.25389061	     16.39884146	      2.14943371	     -3.75862016	    -61.40800295	     12.19991032	    -11.30952329	     -3.20059026	     -8.46916211	     -1.48256552	     -2.99743599	      2.04975034	      1.83613528	      0.00000000	      0.00000000	      0.00000000	      0.00000000	      0.00000000	      0.97622608	    -11.40413128	      0.09926764	      3.35013880
      0.35000000	      2.53028654	     -2.47758047	     -4.69265993	     -0.37752312	      1.03449735	      0.25401672	     16.92828885	      2.12558309	     -3.81422922	    -60.91136082	     12.27421200	    -11.30873576	     -3.20367586	     -8.74323185	     -1.45957007	     -3.00469309	      1.86152514	      1.66375001	      0.00000000	      0.00000000	      0.00000000	      0.00000000	      0.00000000	      1.03572598	    -11.53972819	      0.07841398	      3.33937080
      0.35416667	      2.45439765	     -2.83276130	     -4.38231431	     -0.37195649	      1.03476222	      0.25365553	     17.24748379	      2.45189854	     -4.16242720	    -59.95931488	     12.91912822	    -11.08176288	     -3.28183487	     -9.08633056	     -1.86310453	     -2.81422516	      2.06732056	      1.76721595	      0.00000000	      0.00000000	      0.00000000	      0.00000000	      0.00000000	      1.24064514	    -11.42672290	      0.56087688	      3.21857295
      0.35833333	      2.48722332	     -2.81485550	     -4.34927358	     -0.36728153	      1.03482869	      0.25378423	     17.75802406	      2.41183776	     -4.21645969	    -59.39846485	     12.97676383	    -11.06970862	     -3.29358144	     -9.36277353	     -1.83024522	     -2.80750678	      1.90684139	      1.60459060	      0.00000000	      0.00000000	      0.00000000	      0.00000000	      0.00000000	      1.29335071	    -11.55357485	      0.53142196	      3.19554828
      0.36250000	      2.53007927	     -3.18452202	     -3.90951131	     -0.36156627	      1.03520224	      0.25319908	     17.87023460	      2.66181059	     -4.72694177	    -58.29371793	     13.40016271	    -10.68193219	     -3.75660141	     -9.94958462	     -2.26115263	     -2.46196531	      2.47956554	      1.93720182	      0.00000000	      0.00000000	      0.00000000	      0.00000000	      0.00000000	      1.43190467	    -11.54974132	      1.08918082	      2.69523256
      0.36666667	      2.53450966	     -3.28862905	     -3.76590266	     -0.35632576	      1.03533302	      0.25325902	     18.20029621	      2.76140925	     -4.87600899	    -57.42482611	     13.74436941	    -10.70512424	     -3.84352635	    -10.28098578	     -2.37831539	     -2.41016362	      2.43704098	      1.82908532	      0.00000000	      0.00000000	      0.00000000	      0.00000000	      0.00000000	      1.58083406	    -11.52970167	      1.17898447	      2.65938610
      0.37083333	      2.69361554	     -3.58257267	     -3.43716824	     -0.35131495	      1.03571894	      0.25282485	     18.31013330	      2.95399902	     -5.28994679	    -56.43120002	     14.05684726	    -10.61331355	     -4.75481696	    -10.84448619	     -2.71577469	     -2.15307956	      2.71927410	      1.99049410	      0.00000000	      0.00000000	      0.00000000	      0.00000000	      0.00000000	      1.67205195	    -11.81127057	      1.62977164	      2.21898999
      0.37500000	      2.66198771	     -3.61309951	     -3.33469126	     -0.34626083	      1.03568136	      0.25290416	     18.70445964	      2.97164154	     -5.38292172	    -55.55559219	     14.29032065	    -10.65192297	     -4.81836433	    -11.10217490	     -2.75110467	     -2.14551187	      2.64070503	      1.89412772	      0.00000000	      0.00000000	      0.00000000	      0.00000000	      0.00000000	      1.78024918	    -11.79484350	      1.64952416	      2.24599246
      0.37916667	      2.63382982	     -3.60854410	     -3.23798603	     -0.34138233	      1.03561161	      0.25298474	     19.11067449	      2.94879155	     -5.47192716	    -54.67345084	     14.43877034	    -10.68633918	     -4.85441911	    -11.34226114	     -2.74324590	     -2.15847947	      2.55822685	      1.81140473	      0.00000000	      0.00000000	      0.00000000	      0.00000000	      0.00000000	      1.87036678	    -11.83151283	      1.64387023	      2.24130496
      0.38333333	      2.52827925	     -4.04197546	     -2.89455670	     -0.33587537	      1.03566016	      0.25262833	     19.35256830	      3.32776519	     -5.92383594	    -53.42606033	     14.71690628	    -10.86806947	     -5.23146831	    -11.69012298	     -3.27659595	     -1.83669178	      2.89683117	      1.96222479	      0.00000000	      0.00000000	      0.00000000	      0.00000000	      0.00000000	      2.02986352	    -11.69053037	      2.25193877	      2.06832281
      0.38750000	      2.51333350	     -3.98137960	     -2.82168044	     -0.33103095	      1.03552464	      0.25278966	     19.72634056	      3.24493849	     -6.00386193	    -52.49821007	     14.81909762	    -10.91893488	     -5.28077728	    -11.93165436	     -3.20614954	     -1.88919748	      2.78815105	      1.87961113	      0.00000000	      0.00000000	      0.00000000	      0.00000000	      0.00000000	      2.11291962	    -11.75362620	      2.15665949	      2.03111525
      0.39166667	      2.60687996	     -4.33777425	     -2.48101020	     -0.32581817	      1.03575866	      0.25253623	     19.77930596	      3.56012230	     -6.39617292	    -51.27690170	     15.89762412	    -11.02714661	     -9.71958837	    -12.45184763	     -3.65006818	     -1.61824811	      3.08690768	      2.01193932	      0.00000000	      0.00000000	      0.00000000	      0.00000000	      0.00000000	      2.25437689	    -11.88586715	      2.64945392	      1.64510064
      0.39583333	      2.56832762	     -4.26065836	     -2.42437340	     -0.32097867	      1.03552595	      0.25270227	     20.15036450	      3.45395477	     -6.48284382	    -50.28844289	     16.01378571	    -11.08059528	     -9.71983615	    -12.66848304	     -3.56109990	     -1.67315648	      2.97105567	      1.92046832	      0.00000000	      0.00000000	      0.00000000	      0.00000000	      0.00000000	      2.34136372	    -11.92512231	      2.55442004	      1.63958541
